<svg xmlns="http://www.w3.org/2000/svg" xmlns:xlink="http://www.w3.org/1999/xlink" version="1.1" x="0px" y="0px" viewBox="0 0 20 25" enable-background="new 0 0 20 20" xml:space="preserve"><g><path fill="#000000" d="M18.9,10.3C19,9.8,19,9.4,19,9c0-5-4-9-9-9S1,4,1,9c0,0.4,0,0.8,0.1,1.3C0.4,11,0,11.9,0,13   c0,2.2,1.8,4,4,4c0.6,0,1-0.4,1-1v-6c0-0.6-0.4-1-1-1C3.7,9,3.3,9.1,3,9.1C3,9.1,3,9,3,9c0-3.9,3.1-7,7-7s7,3.1,7,7   c0,0,0,0.1,0,0.1C16.7,9.1,16.3,9,16,9c-0.6,0-1,0.4-1,1v6c0,0.5,0.3,0.8,0.7,0.9c-0.3,0.6-1,1.1-1.7,1.1h-2c-0.6,0-1,0.4-1,1   s0.4,1,1,1h2c2,0,3.7-1.5,4-3.5c1.2-0.7,2-2,2-3.5C20,11.9,19.6,11,18.9,10.3z M3,14.7c-0.6-0.3-1-1-1-1.7s0.4-1.4,1-1.7V14.7z    M17,14.7v-3.5c0.6,0.3,1,1,1,1.7S17.6,14.4,17,14.7z"/></g><text x="0" y="35" fill="#000000" font-size="5px" font-weight="bold" font-family="'Helvetica Neue', Helvetica, Arial-Unicode, Arial, Sans-serif">Created by ProSymbols</text><text x="0" y="40" fill="#000000" font-size="5px" font-weight="bold" font-family="'Helvetica Neue', Helvetica, Arial-Unicode, Arial, Sans-serif">from the Noun Project</text></svg>