<svg xmlns="http://www.w3.org/2000/svg" xmlns:xlink="http://www.w3.org/1999/xlink" version="1.1" x="0px" y="0px" viewBox="0 0 56.137 117.47125" enable-background="new 0 0 56.137 93.977" xml:space="preserve"><path fill="#000000" d="M22.078,40.921c1.564,0,2.833-2.055,2.833-4.591s-1.269-4.591-2.833-4.591s-2.833,2.055-2.833,4.591  S20.513,40.921,22.078,40.921z M34.582,40.921c1.564,0,2.834-2.055,2.834-4.591s-1.27-4.591-2.834-4.591  c-1.563,0-2.832,2.055-2.832,4.591S33.017,40.921,34.582,40.921z M28.678,49.255c9.161-0.022,14.968-6.322,15.042-6.384  c0.321-0.351,0.303-0.896-0.048-1.222c-0.35-0.324-0.895-0.305-1.221,0.045c-0.002,0-0.312,0.341-0.951,0.886  c-1.922,1.649-6.584,4.953-12.824,4.946c-4.198,0-7.729-1.241-10.212-2.489c-1.241-0.624-2.218-1.246-2.879-1.709  s-0.983-0.751-0.985-0.75c-0.36-0.315-0.906-0.278-1.22,0.083c-0.314,0.357-0.277,0.903,0.083,1.219  C13.54,43.938,19.586,49.241,28.678,49.255z M46.324,49.377c6.002-5.146,9.811-12.78,9.812-21.309  C56.134,12.566,43.57,0.002,28.067,0C12.566,0.002,0.002,12.566,0,28.069c0.001,8.688,3.949,16.45,10.146,21.599  C2.175,56.27,0.23,67.616,0.217,79.99c0.085,1.19,0.746,1.532,1.027,1.756c0.595,0.377,1.133,0.543,1.765,0.752  c0.929,0.293,1.986,0.563,2.76,0.812c0.124,0.039,0.239,0.078,0.344,0.117c0.367,4.531,2.602,7.623,5.904,8.992  c3.438,1.481,7.659,1.541,12.481,1.559c1.185,0,2.41-0.006,3.668-0.006c5.755-0.013,10.834,0.039,14.91-1.31  c2.033-0.681,3.853-1.779,5.158-3.484c1.172-1.518,1.881-3.445,2.135-5.75c0.527-0.186,1.426-0.467,2.219-0.688  c0.631-0.189,1.238-0.378,1.797-0.615c0.281-0.127,0.55-0.252,0.863-0.486c0.269-0.223,0.822-0.643,0.867-1.647  c-0.004-6.8-0.455-13.207-2.152-18.769C52.529,56.508,50.113,52.379,46.324,49.377z M3.541,29.976l4.822-7.18  c0,0,5.228,3.785,16.299,6.26c11.07,2.476,21.496-0.118,21.496-0.118s2.945,5.488,5.102,7.345  c-1.563,4.406-4.354,8.223-7.948,11.069l-0.097-0.058l-0.926,0.674c-4.049,2.94-8.992,4.692-14.368,4.708  c-0.144-0.002-0.287-0.008-0.43-0.012c-0.288-0.004-0.572-0.021-0.857-0.033C14.346,51.905,4.497,42.201,3.541,29.976z   M35.375,55.168c-0.262,0.488-0.604,0.981-1.086,1.428c-1.065,0.982-2.793,1.879-6.042,1.891c-4.44-0.038-6.16-1.534-7.12-2.875  c-0.083-0.12-0.149-0.241-0.22-0.362c1.809,0.463,3.686,0.748,5.614,0.844c0.234,0.012,0.473,0.016,0.709,0.021  c0.208,0.006,0.412,0.021,0.621,0.021c0.024,0,0.049-0.004,0.072-0.004c0.049,0.002,0.096,0.004,0.143,0.004  C30.595,56.135,33.044,55.795,35.375,55.168z M50.083,79.877c-0.16,0.049-0.311,0.102-0.463,0.151l-2.096-15.271  c0,0-0.476,16.953-0.535,17.623c-0.141,2.188-0.691,3.643-1.494,4.688c-1.184,1.552-3.195,2.468-6.209,2.953  c-2.986,0.484-6.811,0.496-11.119,0.494c-1.269,0-2.495,0.006-3.668,0.006c-4.76,0.017-8.679-0.178-11.091-1.268  c-2.346-1.113-3.606-2.605-3.892-6.857c-0.783-6.032-0.104-17.639-0.104-17.639L7.3,80.149l0.118,0.078  c-0.84-0.319-1.741-0.531-2.628-0.805c-0.417-0.119-0.81-0.24-1.113-0.346C3.77,66.995,6.008,57.022,12.94,51.838  c1.224,0.77,2.518,1.438,3.859,2.014c0.136,0.865,0.493,2.254,1.473,3.705c1.515,2.289,4.698,4.426,9.975,4.387  c0.052,0,0.105,0,0.157,0c5.113,0,8.217-2.192,9.664-4.522c0.904-1.424,1.254-2.789,1.395-3.703c1.396-0.621,2.73-1.35,3.994-2.182  c3.562,2.521,5.787,6.116,7.201,10.696c1.463,4.775,1.959,10.566,1.998,16.857C52.017,79.319,50.994,79.598,50.083,79.877z"/><text x="0" y="108.977" fill="#000000" font-size="5px" font-weight="bold" font-family="'Helvetica Neue', Helvetica, Arial-Unicode, Arial, Sans-serif">Created by Javier Cabezas</text><text x="0" y="113.977" fill="#000000" font-size="5px" font-weight="bold" font-family="'Helvetica Neue', Helvetica, Arial-Unicode, Arial, Sans-serif">from the Noun Project</text></svg>