<svg xmlns="http://www.w3.org/2000/svg" xmlns:xlink="http://www.w3.org/1999/xlink" version="1.1" x="0px" y="0px" viewBox="0 0 30 37.5" xml:space="preserve"><g transform="translate(-330 -260)"><g xmlns="http://www.w3.org/2000/svg" xmlns:xlink="http://www.w3.org/1999/xlink"><path d="M345,283c-2.982,0-5.688-1.197-7.671-3.131c-1.274,1.288-4.013,4.433-3.172,6.938c1.085,3.23,5.422-1.121,10.843-1.121    s9.758,4.352,10.843,1.121c0.841-2.505-1.898-5.649-3.172-6.938C350.688,281.803,347.982,283,345,283z"/><path d="M345,282c5.523,0,10-4.477,10-10c0-5.522-4.477-10-10-10c-5.523,0-10,4.478-10,10C335,277.523,339.477,282,345,282z     M345,263c0.553,0,1,0.448,1,1c0,0.553-0.447,1-1,1s-1-0.447-1-1C344,263.448,344.447,263,345,263z M345,266c3.313,0,6,2.686,6,6    s-2.687,6-6,6c-3.314,0-6-2.686-6-6S341.686,266,345,266z"/><circle cx="345" cy="272" r="4"/></g></g><text x="0" y="45" fill="#000000" font-size="5px" font-weight="bold" font-family="'Helvetica Neue', Helvetica, Arial-Unicode, Arial, Sans-serif">Created by Hea Poh Lin</text><text x="0" y="50" fill="#000000" font-size="5px" font-weight="bold" font-family="'Helvetica Neue', Helvetica, Arial-Unicode, Arial, Sans-serif">from the Noun Project</text></svg>